<svg width="800" height="1000" viewBox="0 0 800 1000" fill="none" xmlns="http://www.w3.org/2000/svg">
<g clip-path="url(#clip0_1_81)">
<path d="M800 0H0V1000H800V0Z" fill="#3D41A6"/>
<path d="M445.061 166.666C482.221 166.666 512.345 136.542 512.345 99.382C512.345 62.2221 482.221 32.098 445.061 32.098C407.901 32.098 377.777 62.2221 377.777 99.382C377.777 136.542 407.901 166.666 445.061 166.666Z" fill="url(#paint0_radial_1_81)" fill-opacity="0.3"/>
<path d="M333.951 707.407C371.111 707.407 401.235 677.283 401.235 640.123C401.235 602.963 371.111 572.839 333.951 572.839C296.791 572.839 266.667 602.963 266.667 640.123C266.667 677.283 296.791 707.407 333.951 707.407Z" fill="url(#paint1_radial_1_81)" fill-opacity="0.3"/>
<path d="M128.517 236.297C165.677 236.297 195.801 206.173 195.801 169.013C195.801 131.853 165.677 101.729 128.517 101.729C91.3567 101.729 61.2327 131.853 61.2327 169.013C61.2327 206.173 91.3567 236.297 128.517 236.297Z" fill="url(#paint2_radial_1_81)" fill-opacity="0.3"/>
</g>
<defs>
<radialGradient id="paint0_radial_1_81" cx="0" cy="0" r="1" gradientUnits="userSpaceOnUse" gradientTransform="translate(445.061 99.382) rotate(90) scale(67.284 67.284)">
<stop stop-color="#AB789A"/>
<stop offset="1" stop-color="#D9D9D9" stop-opacity="0"/>
</radialGradient>
<radialGradient id="paint1_radial_1_81" cx="0" cy="0" r="1" gradientUnits="userSpaceOnUse" gradientTransform="translate(333.951 640.123) rotate(90) scale(67.284 67.284)">
<stop stop-color="#AB789A"/>
<stop offset="1" stop-color="#D9D9D9" stop-opacity="0"/>
</radialGradient>
<radialGradient id="paint2_radial_1_81" cx="0" cy="0" r="1" gradientUnits="userSpaceOnUse" gradientTransform="translate(128.517 169.013) rotate(90) scale(67.284 67.284)">
<stop stop-color="#AB789A"/>
<stop offset="1" stop-color="#D9D9D9" stop-opacity="0"/>
</radialGradient>
<clipPath id="clip0_1_81">
<rect width="800" height="1000" rx="10" fill="white"/>
</clipPath>
</defs>
</svg>
