<svg width="463" height="568" viewBox="0 0 463 568" fill="none" xmlns="http://www.w3.org/2000/svg">
<g clip-path="url(#clip0_1_81)">
<path d="M462.755 0H0V568H462.755V0Z" fill="#3D41A6"/>
<path d="M257.443 94.6663C278.938 94.6663 296.363 77.5558 296.363 56.449C296.363 35.3422 278.938 18.2317 257.443 18.2317C235.948 18.2317 218.523 35.3422 218.523 56.449C218.523 77.5558 235.948 94.6663 257.443 94.6663Z" fill="url(#paint0_radial_1_81)" fill-opacity="0.3"/>
<path d="M193.172 401.807C214.667 401.807 232.092 384.697 232.092 363.59C232.092 342.483 214.667 325.373 193.172 325.373C171.677 325.373 154.252 342.483 154.252 363.59C154.252 384.697 171.677 401.807 193.172 401.807Z" fill="url(#paint1_radial_1_81)" fill-opacity="0.3"/>
<path d="M74.3397 134.216C95.8347 134.216 113.26 117.106 113.26 95.9992C113.26 74.8923 95.8347 57.7819 74.3397 57.7819C52.8448 57.7819 35.4197 74.8923 35.4197 95.9992C35.4197 117.106 52.8448 134.216 74.3397 134.216Z" fill="url(#paint2_radial_1_81)" fill-opacity="0.3"/>
</g>
<defs>
<radialGradient id="paint0_radial_1_81" cx="0" cy="0" r="1" gradientUnits="userSpaceOnUse" gradientTransform="translate(257.443 56.449) rotate(90) scale(38.2173 38.92)">
<stop stop-color="#AB789A"/>
<stop offset="1" stop-color="#D9D9D9" stop-opacity="0"/>
</radialGradient>
<radialGradient id="paint1_radial_1_81" cx="0" cy="0" r="1" gradientUnits="userSpaceOnUse" gradientTransform="translate(193.172 363.59) rotate(90) scale(38.2173 38.92)">
<stop stop-color="#AB789A"/>
<stop offset="1" stop-color="#D9D9D9" stop-opacity="0"/>
</radialGradient>
<radialGradient id="paint2_radial_1_81" cx="0" cy="0" r="1" gradientUnits="userSpaceOnUse" gradientTransform="translate(74.3397 95.9992) rotate(90) scale(38.2173 38.92)">
<stop stop-color="#AB789A"/>
<stop offset="1" stop-color="#D9D9D9" stop-opacity="0"/>
</radialGradient>
<clipPath id="clip0_1_81">
<rect width="462.755" height="568" fill="white"/>
</clipPath>
</defs>
</svg>
