<svg width="448" height="568" viewBox="0 0 448 568" fill="none" xmlns="http://www.w3.org/2000/svg">
  <g clip-path="url(#clip0_248_413)">
  <path d="M450.463 499.823C480.282 469.949 480.282 421.515 450.463 391.642C420.643 361.769 372.296 361.769 342.477 391.642C312.657 421.515 312.657 469.949 342.477 499.823C372.296 529.696 420.643 529.696 450.463 499.823Z" fill="#4A4FC7" fill-opacity="0.04"/>
  <path d="M369.152 86.5067C374.147 65.3157 361.048 44.0805 339.895 39.0767C318.742 34.0729 297.545 47.1953 292.55 68.3863C287.555 89.5774 300.654 110.812 321.807 115.816C342.96 120.82 364.157 107.698 369.152 86.5067Z" fill="#4A4FC7" fill-opacity="0.04"/>
  <path d="M219.163 165.639C246.863 157.237 262.519 127.93 254.131 100.18C245.744 72.4309 216.49 56.7469 188.79 65.1491C161.091 73.5514 145.435 102.858 153.822 130.608C162.209 158.357 191.463 174.041 219.163 165.639Z" fill="#4A4FC7" fill-opacity="0.04"/>
  <path d="M297.736 414.79C302.372 386.17 282.972 359.205 254.404 354.56C225.836 349.915 198.918 369.35 194.282 397.97C189.646 426.589 209.046 453.555 237.614 458.2C266.182 462.844 293.099 443.409 297.736 414.79Z" fill="#4A4FC7" fill-opacity="0.04"/>
  <path d="M239.25 31.8523C285.911 31.8523 323.736 -6.04147 323.736 -52.7859C323.736 -99.5303 285.911 -137.424 239.25 -137.424C192.59 -137.424 154.764 -99.5303 154.764 -52.7859C154.764 -6.04147 192.59 31.8523 239.25 31.8523Z" fill="#4A4FC7" fill-opacity="0.04"/>
  <path d="M110.495 107.76C143.489 74.7068 143.489 21.1174 110.495 -11.9356C77.5019 -44.9885 24.0087 -44.9885 -8.98491 -11.9356C-41.9785 21.1174 -41.9785 74.7068 -8.98491 107.76C24.0087 140.813 77.5019 140.813 110.495 107.76Z" fill="#4A4FC7" fill-opacity="0.04"/>
  <path d="M144.995 553.169C177.988 520.116 177.988 466.527 144.995 433.474C112.001 400.421 58.508 400.421 25.5144 433.474C-7.47924 466.527 -7.47924 520.116 25.5144 553.169C58.508 586.222 112.001 586.222 144.995 553.169Z" fill="#4A4FC7" fill-opacity="0.04"/>
  <path d="M207.051 294.427C213.444 248.122 181.156 205.393 134.934 198.989C88.7119 192.585 46.0596 224.931 39.6671 271.236C33.2747 317.541 65.5627 360.27 111.785 366.674C158.006 373.078 200.659 340.732 207.051 294.427Z" fill="#4A4FC7" fill-opacity="0.04"/>
  <path d="M390.724 313.271C423.718 280.218 423.718 226.629 390.724 193.576C357.731 160.523 304.238 160.523 271.244 193.576C238.25 226.629 238.25 280.218 271.244 313.271C304.238 346.324 357.731 346.324 390.724 313.271Z" fill="#4A4FC7" fill-opacity="0.04"/>
  <circle cx="398.361" cy="255.361" r="2.36126" fill="#797B96"/>
  <circle cx="303.361" cy="448.361" r="2.36126" fill="#797B96"/>
  <circle cx="333.503" cy="104.605" r="2.36126" fill="#797B96"/>
  <circle cx="224.885" cy="40.8508" r="2.36126" fill="#797B96"/>
  <circle cx="21.8173" cy="26.6833" r="2.36126" fill="#797B96"/>
  <circle cx="419.633" cy="390.361" r="2.36126" fill="#797B96"/>
  <g clip-path="url(#clip1_248_413)">
  <path d="M376.388 68.0051C372.24 68.0051 368.922 64.2718 368.922 60.1237C368.922 55.9755 372.24 52.657 376.388 52.657C380.536 52.657 383.855 55.9755 383.855 60.1237C384.27 64.2718 380.536 68.0051 376.388 68.0051ZM376.388 55.5607C373.899 55.5607 371.825 57.6348 371.825 60.1237C371.825 62.6125 373.899 64.6866 376.388 64.6866C378.877 64.6866 380.951 62.6125 380.951 60.1237C380.951 57.6348 378.877 55.5607 376.388 55.5607Z" fill="#4A4FC7"/>
  </g>
  <g clip-path="url(#clip2_248_413)">
  <path d="M98.9408 75.0889C94.7926 75.0889 91.4741 71.3555 91.4741 67.2074C91.4741 63.0592 94.7926 59.7407 98.9408 59.7407C103.089 59.7407 106.407 63.0592 106.407 67.2074C106.822 71.3555 103.089 75.0889 98.9408 75.0889ZM98.9408 62.6444C96.4519 62.6444 94.3778 64.7185 94.3778 67.2074C94.3778 69.6963 96.4519 71.7704 98.9408 71.7704C101.43 71.7704 103.504 69.6963 103.504 67.2074C103.504 64.7185 101.43 62.6444 98.9408 62.6444Z" fill="#4A4FC7"/>
  </g>
  <path d="M369.467 513.348C365.319 513.348 362 509.615 362 505.467C362 501.319 365.319 498 369.467 498C373.615 498 376.933 501.319 376.933 505.467C377.348 509.615 373.615 513.348 369.467 513.348ZM369.467 500.904C366.978 500.904 364.904 502.978 364.904 505.467C364.904 507.956 366.978 510.03 369.467 510.03C371.956 510.03 374.03 507.956 374.03 505.467C374.03 502.978 371.956 500.904 369.467 500.904Z" fill="#4A4FC7"/>

  </g>
  <defs>
  <clipPath id="clip0_248_413">
  <rect width="448" height="568" fill="white"/>
  </clipPath>
  <clipPath id="clip1_248_413">
  <rect width="15.3482" height="15.3482" fill="white" transform="translate(368.922 52.657)"/>
  </clipPath>
  <clipPath id="clip2_248_413">
  <rect width="15.3482" height="15.3482" fill="white" transform="translate(91.4741 59.7407)"/>
  </clipPath>
  </defs>
  </svg>  
